# Blender v2.79 (sub 0) OBJ File: ''
# www.blender.org
mtllib bigavaca.mtl
o Cube.019_Cube.035
v -1.027382 -0.274517 -2.946746
v -1.043836 -0.274511 -2.978617
v -1.058185 -0.276796 -2.971974
v -1.042601 -0.276802 -2.941786
v -1.007491 -0.286770 -2.988147
v -0.983397 -0.297492 -2.991652
v -0.987507 -0.313869 -2.989925
v -1.009602 -0.315914 -2.988841
v -1.010327 -0.293963 -2.986691
v -1.010529 -0.291183 -2.987868
v -1.014516 -0.272272 -2.949601
v -1.026272 -0.318844 -2.945131
v -1.012697 -0.320081 -2.946657
v -1.014261 -0.278950 -2.949190
v -0.995586 -0.315919 -2.961690
v -0.979995 -0.313872 -2.975374
v -1.023571 -0.266552 -2.967072
v -1.033383 -0.272267 -2.984897
v -0.998418 -0.284214 -2.961368
v -1.005257 -0.281002 -2.974578
v -1.010158 -0.275504 -2.952786
v -1.044210 -0.318837 -2.979879
v -1.033870 -0.320073 -2.987670
v -0.999064 -0.317114 -2.957051
v -1.003382 -0.291691 -2.957884
v -1.003204 -0.286689 -2.958264
v -1.032764 -0.276950 -2.987752
v -1.028395 -0.276546 -2.984917
v -1.034260 -0.275750 -2.996823
v -1.036450 -0.289038 -2.991960
v -1.028451 -0.284425 -2.979629
v -1.001333 -0.284099 -2.976187
v -0.979934 -0.297493 -2.984946
v -1.029882 -0.277409 -2.998524
v -1.032072 -0.290697 -2.993662
v -1.024017 -0.278205 -2.986619
v -1.024073 -0.286084 -2.981330
v -1.004700 -0.276139 -2.940350
v -1.010686 -0.276958 -2.951383
v -1.015535 -0.285122 -2.955180
v -1.010186 -0.289481 -2.941833
v -1.007117 -0.278310 -2.952770
v -1.011966 -0.286474 -2.956567
v -1.001131 -0.277491 -2.941736
v -1.006617 -0.290833 -2.943221
v -1.057779 -0.325734 -2.971779
v -1.074308 -0.333364 -2.971259
v -1.076040 -0.280949 -2.973979
v -1.042195 -0.325740 -2.941591
v -1.052705 -0.280958 -2.928779
v -1.053566 -0.333371 -2.931082
v -1.011966 -0.284210 -2.987611
v -1.029469 -0.274878 -2.988091
v -0.994967 -0.286774 -2.963890
v -0.998709 -0.289680 -2.961272
v -1.015898 -0.317108 -2.989661
v -0.975884 -0.297495 -2.977101
v -0.999483 -0.293551 -2.962133
v -1.016220 -0.289003 -2.986972
v -1.010426 -0.291210 -2.987498
v -1.015967 -0.289087 -2.986625
v -1.016560 -0.293120 -2.987034
v -1.016298 -0.293096 -2.986686
v -1.010224 -0.293902 -2.986354
v -1.003505 -0.291656 -2.958287
v -1.003331 -0.286786 -2.958657
v -0.999699 -0.293458 -2.962428
v -0.998953 -0.289699 -2.961587
v -1.120467 -0.283142 -2.973463
v -1.106183 -0.272792 -2.934606
v -1.061458 -0.272757 -2.953207
v -1.074653 -0.279180 -2.980730
v -1.047906 -0.287347 -2.958660
v -1.046029 -0.279190 -2.925595
v -1.036104 -0.293338 -2.936030
v -1.186337 -0.278352 -2.947504
v -1.175233 -0.266151 -2.906215
v -1.082587 -0.283155 -2.900498
v -1.063770 -0.325023 -2.945921
v -1.055546 -0.325026 -2.930079
v -1.040659 -0.325731 -2.935948
v -1.048884 -0.325728 -2.951791
v -1.059215 -0.401442 -2.931801
v -1.050658 -0.401875 -2.935177
v -1.064238 -0.401440 -2.941481
v -1.055682 -0.401873 -2.944856
v -1.076626 -0.325609 -2.972225
v -1.069157 -0.325611 -2.957839
v -1.055637 -0.326252 -2.963170
v -1.063106 -0.326249 -2.977556
v -1.072952 -0.400897 -2.959117
v -1.065089 -0.401294 -2.962219
v -1.077567 -0.400895 -2.968010
v -1.069704 -0.401292 -2.971111
v -1.174695 -0.323608 -2.936551
v -1.165961 -0.323611 -2.919728
v -1.150148 -0.324360 -2.925963
v -1.158882 -0.324356 -2.942785
v -1.159361 -0.400912 -2.926225
v -1.150487 -0.401360 -2.929725
v -1.164570 -0.400910 -2.936260
v -1.155695 -0.401358 -2.939760
v -1.159730 -0.323679 -2.906018
v -1.150188 -0.323683 -2.887638
v -1.132917 -0.324500 -2.894448
v -1.142458 -0.324497 -2.912828
v -1.142848 -0.400825 -2.894851
v -1.134356 -0.401254 -2.898200
v -1.147832 -0.400823 -2.904456
v -1.139341 -0.401252 -2.907805
v -1.056121 -0.289214 -2.981483
v -1.036972 -0.321958 -2.934911
v -1.046640 -0.329277 -2.959639
v -1.046258 -0.318444 -2.960041
v -1.060446 -0.321950 -2.980073
v -1.148457 -0.278365 -2.874539
v -1.156176 -0.313286 -2.881883
v -1.150779 -0.334220 -2.883866
v -1.143343 -0.342378 -2.886741
v -1.095595 -0.342086 -2.906802
v -1.040062 -0.340610 -2.931077
v -1.176223 -0.310090 -2.906815
v -1.065312 -0.340512 -2.980402
v -1.123265 -0.342119 -2.959889
v -1.171198 -0.342365 -2.942179
v -1.179402 -0.334210 -2.939001
v -1.186227 -0.313376 -2.936458
v -1.163545 -0.334208 -2.913050
v -1.038061 -0.270756 -2.995507
v -1.038100 -0.272559 -2.995603
v -1.036721 -0.271523 -2.995667
v -1.006731 -0.274142 -2.940732
v -1.007646 -0.274912 -2.939929
v -1.007703 -0.273421 -2.940021
v -0.979472 -0.305069 -2.979570
v -0.978958 -0.302838 -2.979893
v -0.979791 -0.302767 -2.981550
v -0.980319 -0.304686 -2.979242
v -0.981185 -0.304608 -2.980966
v -0.980638 -0.302384 -2.981221
v -0.979804 -0.302455 -2.979565
v -0.983388 -0.304998 -2.987197
v -0.982434 -0.304995 -2.985350
v -0.981860 -0.302847 -2.985509
v -0.980339 -0.304991 -2.981294
v -0.982729 -0.302923 -2.987146
v -0.983280 -0.304613 -2.985021
v -0.982707 -0.302464 -2.985181
v -0.984235 -0.304614 -2.986868
v -0.983575 -0.302541 -2.986818
v -1.137717 -0.330624 -2.906982
v -1.150883 -0.330619 -2.932487
v -1.150738 -0.348089 -2.932417
v -1.147601 -0.357755 -2.926458
v -1.140741 -0.357757 -2.913169
v -1.137571 -0.348094 -2.906912
v -1.126898 -0.330531 -2.941872
v -1.126753 -0.348001 -2.941803
v -1.131852 -0.357685 -2.939738
v -1.148437 -0.357746 -2.933247
v -1.113732 -0.330536 -2.916368
v -1.113587 -0.348006 -2.916298
v -1.118012 -0.357669 -2.924987
v -1.123879 -0.357667 -2.936352
v -1.134603 -0.357747 -2.908004
v -1.117887 -0.357687 -2.914546
v -1.140428 -0.350087 -2.927957
v -1.142581 -0.350086 -2.932126
v -1.142979 -0.365753 -2.931857
v -1.140827 -0.365753 -2.927687
v -1.138660 -0.350072 -2.933661
v -1.138693 -0.365737 -2.933534
v -1.136508 -0.350072 -2.929491
v -1.136540 -0.365737 -2.929365
v -1.132569 -0.350058 -2.931032
v -1.134722 -0.350057 -2.935202
v -1.134387 -0.365721 -2.935219
v -1.132234 -0.365722 -2.931050
v -1.130801 -0.350043 -2.936736
v -1.130100 -0.365705 -2.936897
v -1.128648 -0.350043 -2.932567
v -1.127948 -0.365706 -2.932727
v -1.125591 -0.350061 -2.917515
v -1.127743 -0.350059 -2.921685
v -1.127408 -0.365724 -2.921702
v -1.125256 -0.365724 -2.917532
v -1.123823 -0.350045 -2.923218
v -1.123122 -0.365708 -2.923380
v -1.121670 -0.350046 -2.919050
v -1.120970 -0.365709 -2.919210
v -1.134338 -0.350092 -2.914092
v -1.136490 -0.350092 -2.918261
v -1.136972 -0.365759 -2.917960
v -1.134819 -0.365759 -2.913790
v -1.132570 -0.350078 -2.919796
v -1.132685 -0.365743 -2.919637
v -1.130417 -0.350078 -2.915626
v -1.130533 -0.365744 -2.915468
vn 0.8575 -0.2619 -0.4428
vn 0.8576 -0.2618 -0.4427
vn 0.3682 0.0161 0.9296
vn 0.8576 -0.2618 -0.4428
vn -0.3522 0.0245 -0.9356
vn 0.3465 0.9206 -0.1801
vn -0.3615 -0.9214 0.1425
vn 0.3106 -0.1218 0.9427
vn -0.3798 -0.0464 -0.9239
vn -0.3305 -0.9182 0.2183
vn 0.3623 0.9214 -0.1404
vn -0.8886 -0.0055 0.4587
vn -0.3644 -0.0067 -0.9312
vn 0.8886 0.0055 -0.4587
vn 0.3644 0.0067 0.9312
vn -0.6190 -0.2736 0.7362
vn -0.0030 1.0000 0.0017
vn -0.8882 0.0305 0.4585
vn -0.3643 -0.0067 -0.9312
vn 0.8885 -0.0056 -0.4587
vn 0.0031 -1.0000 -0.0017
vn -0.8884 -0.0195 0.4586
vn 0.8877 0.0444 -0.4583
vn 0.3645 0.0067 0.9312
vn 0.0030 -1.0000 -0.0017
vn -0.0030 1.0000 0.0018
vn 0.3644 0.0068 0.9312
vn -0.8880 0.0361 0.4584
vn -0.3645 -0.0067 -0.9312
vn 0.8885 -0.0112 -0.4587
vn 0.9130 -0.4077 -0.0117
vn 0.3634 -0.3734 -0.8536
vn -0.9636 -0.2398 0.1183
vn -0.8813 -0.2588 0.3954
vn -0.0880 0.0550 -0.9946
vn 0.5989 -0.7968 -0.0803
vn 0.6225 0.0717 0.7793
vn 0.4663 0.8544 -0.2291
vn 0.4954 0.8636 -0.0939
vn 0.3838 -0.6608 -0.6450
vn -0.8147 0.0047 0.5799
vn 0.6136 -0.1081 0.7822
vn -0.0856 -0.1574 -0.9838
vn -0.1271 0.9897 0.0658
vn -0.1304 -0.0070 -0.9914
vn 0.1612 0.0539 0.9854
vn 0.0898 -0.9949 -0.0466
vn -0.3407 0.9226 0.1810
vn 0.5835 0.8094 -0.0666
vn -0.0858 -0.9953 0.0441
vn 0.6324 0.0767 0.7709
vn -0.6156 0.0407 -0.7870
vn -0.8477 0.2999 0.4377
vn 0.3757 0.8704 -0.3181
vn -0.4308 -0.2467 -0.8681
vn 0.8477 -0.2999 -0.4376
vn 0.4707 0.4894 0.7341
vn -0.1648 -0.8840 0.4376
vn 0.3202 0.9426 -0.0947
vn -0.1491 0.4885 -0.8598
vn 0.2802 -0.2191 0.9346
vn -0.3971 -0.9074 -0.1372
vn 0.2710 0.9379 -0.2167
vn 0.0526 -0.0276 -0.9982
vn -0.4695 0.0099 -0.8829
vn 0.3559 -0.9163 -0.1839
vn 0.2569 0.0229 0.9662
vn -0.8886 -0.0056 0.4587
vn 0.4044 -0.8904 -0.2089
vn 0.7426 -0.0173 0.6695
vn -0.2379 0.9635 0.1230
vn 0.4167 0.8014 -0.4292
vn 0.5638 -0.0156 0.8257
vn 0.5674 0.8167 -0.1053
vn 0.1537 -0.9849 -0.0795
vn 0.4590 0.8802 -0.1204
vn 0.5812 0.0069 0.8137
vn 0.4343 0.8011 -0.4120
vn 0.1982 -0.9748 -0.1025
vn -0.1356 0.0087 -0.9907
vn -0.3536 -0.9349 0.0308
vn 0.7663 0.1484 0.6251
vn 0.1407 0.9706 -0.1951
vn 0.0889 0.1057 -0.9904
vn 0.8000 -0.0570 -0.5973
vn 0.9541 -0.0563 -0.2941
vn 0.4034 0.9146 -0.0285
vn -0.9592 0.0473 0.2787
vn -0.3585 -0.8727 0.3316
vn -0.7954 0.0238 0.6056
vn -0.0197 0.0163 -0.9997
vn -0.1013 0.9737 -0.2041
vn 0.6977 0.6853 -0.2087
vn -0.0245 0.9643 -0.2636
vn 0.0705 0.9729 0.2202
vn 0.0393 0.9990 -0.0202
vn 0.3650 -0.0385 0.9302
vn -0.0420 -0.9989 0.0216
vn -0.3686 -0.0516 -0.9282
vn 0.8811 -0.1203 -0.4574
vn -0.8871 0.0322 0.4605
vn 0.3652 -0.0342 0.9303
vn -0.3684 -0.0474 -0.9284
vn 0.8815 -0.1168 -0.4576
vn -0.8869 0.0369 0.4604
vn 0.3645 -0.0470 0.9300
vn -0.3685 -0.0517 -0.9282
vn 0.8874 0.0186 -0.4606
vn -0.8818 -0.1138 0.4577
vn 0.3641 -0.0523 0.9299
vn -0.3689 -0.0756 -0.9264
vn 0.8875 0.0059 -0.4607
vn -0.8804 -0.1265 0.4570
vn 0.9055 -0.0147 -0.4240
vn 0.4166 -0.1340 0.8992
vn -0.7677 0.0203 0.6405
vn -0.3095 -0.1470 -0.9395
vn 0.8319 -0.3527 -0.4285
vn 0.5263 0.7743 -0.3513
vn -0.7934 -0.4017 0.4573
vn -0.6645 -0.6658 0.3393
vn 0.1644 0.9648 0.2052
vn -0.9602 0.0472 0.2754
vn -0.8089 -0.4294 0.4017
vn 0.8191 -0.0501 -0.5714
vn 0.0047 -1.0000 -0.0022
vn 0.0224 -0.9997 -0.0122
usemtl beak.001
s 1
f 6//1 33//1 57//1 135//1 136//1 137//1
f 138//2 139//2 140//2 141//2
f 57//1 16//1 7//1 6//1 142//1 143//1 144//1 137//1 145//1 135//1
f 145//3 137//3 140//3 139//3
f 137//1 144//1 146//4 142//1 6//1
f 144//5 143//5 147//5 148//5
f 149//1 150//1 148//1 147//1
f 143//6 142//6 149//6 147//6
f 137//7 136//7 141//7 140//7
f 142//8 146//8 150//8 149//8
f 136//9 135//9 138//9 141//9
f 146//10 144//10 148//10 150//10
f 135//11 145//11 139//11 138//11
f 151//12 152//12 153//12 154//12 155//12 156//12
f 152//13 157//13 158//13 159//13 160//13 153//13
f 157//14 161//14 162//14 163//14 164//14 158//14
f 161//15 151//15 156//15 165//15 166//15 162//15
f 156//16 155//16 165//16
f 161//17 157//17 152//17 151//17
f 167//18 168//18 169//18 170//18
f 168//19 171//19 172//19 169//19
f 171//20 173//20 174//20 172//20
f 173//15 167//15 170//15 174//15
f 170//21 169//21 172//21 174//21
f 173//17 171//17 168//17 167//17
f 175//22 176//22 177//22 178//22
f 176//13 179//13 180//13 177//13
f 179//23 181//23 182//23 180//23
f 181//24 175//24 178//24 182//24
f 178//25 177//25 180//25 182//25
f 181//26 179//26 176//26 175//26
f 183//22 184//22 185//22 186//22
f 184//13 187//13 188//13 185//13
f 187//23 189//23 190//23 188//23
f 189//27 183//27 186//27 190//27
f 186//25 185//25 188//25 190//25
f 189//26 187//26 184//26 183//26
f 191//28 192//28 193//28 194//28
f 192//29 195//29 196//29 193//29
f 195//30 197//30 198//30 196//30
f 197//24 191//24 194//24 198//24
f 194//25 193//25 196//25 198//25
f 197//17 195//17 192//17 191//17
f 165//25 155//25 154//25 160//25 159//25 164//25 163//25 166//25
f 166//31 163//31 162//31
f 164//32 159//32 158//32
f 160//33 154//33 153//33
usemtl Material.008
f 27//34 18//34 129//34 130//34
f 129//35 131//35 130//35
f 14//36 21//36 132//36 133//36
f 133//37 132//37 134//37
f 21//38 11//38 134//38 132//38
f 18//39 53//39 131//39 129//39
f 53//40 27//40 130//40 131//40
f 11//41 14//41 133//41 134//41
usemtl eyes.001
f 68//42 66//42 65//42 67//42
f 61//43 60//43 64//43 63//43
usemtl body.001
f 1//44 2//44 3//44 4//44
f 5//45 6//45 7//45 8//45 9//45 10//45
f 11//46 1//46 12//46 13//46 14//46
f 15//47 8//47 7//47 16//47
f 11//48 17//48 18//48 2//48 1//48
f 19//49 20//49 17//49 11//49 21//49
f 12//50 22//50 23//50 13//50
f 19//51 21//51 14//51 13//51 24//51 25//51 26//51
f 2//52 18//52 27//52 23//52 22//52
f 28//53 29//53 30//53 31//53
f 32//54 33//54 6//54 5//54
f 29//55 34//55 35//55 30//55
f 34//56 36//56 37//56 35//56
f 36//57 28//57 31//57 37//57
f 31//58 30//58 35//58 37//58
f 36//59 34//59 29//59 28//59
f 38//53 39//53 40//53 41//53
f 39//60 42//60 43//60 40//60
f 42//56 44//56 45//56 43//56
f 44//61 38//61 41//61 45//61
f 41//62 40//62 43//62 45//62
f 44//63 42//63 39//63 38//63
f 3//64 46//64 47//64 48//64
f 2//65 22//65 46//65 3//65
f 22//66 12//66 49//66 46//66
f 12//67 1//67 4//67 49//67
f 50//68 48//68 47//68 51//68
f 46//69 49//69 51//69 47//69
f 49//70 4//70 50//70 51//70
f 4//71 3//71 48//71 50//71
f 17//72 20//72 52//72 53//72 18//72
f 54//73 19//73 26//73 55//73
f 54//74 32//74 20//74 19//74
f 13//75 23//75 56//75 24//75
f 57//76 33//76 32//76 54//76
f 57//77 54//77 55//77 58//77 15//77 16//77
f 20//78 32//78 5//78 52//78
f 24//79 56//79 8//79 15//79
f 52//80 5//80 10//80 59//80
f 59//81 10//81 60//81 61//81
f 58//82 25//82 24//82 15//82
f 9//83 62//83 63//83 64//83
f 62//84 9//84 8//84 56//84
f 62//85 59//85 61//85 63//85
f 26//86 25//86 65//86 66//86
f 25//87 58//87 67//87 65//87
f 10//88 9//88 64//88 60//88
f 55//89 26//89 66//89 68//89
f 58//90 55//90 68//90 67//90
f 27//91 53//91 52//91 59//91 62//91 56//91 23//91
f 69//92 70//92 71//92 72//92
f 73//93 71//93 74//93 75//93
f 76//94 77//94 70//94 69//94
f 71//95 70//95 78//95 74//95
f 79//96 80//96 81//96 82//96
f 80//97 83//97 84//97 81//97
f 83//98 85//98 86//98 84//98
f 85//99 79//99 82//99 86//99
f 82//100 81//100 84//100 86//100
f 85//101 83//101 80//101 79//101
f 87//96 88//96 89//96 90//96
f 88//102 91//102 92//102 89//102
f 91//98 93//98 94//98 92//98
f 93//103 87//103 90//103 94//103
f 90//104 89//104 92//104 94//104
f 93//105 91//105 88//105 87//105
f 95//96 96//96 97//96 98//96
f 96//106 99//106 100//106 97//106
f 99//98 101//98 102//98 100//98
f 101//107 95//107 98//107 102//107
f 98//108 97//108 100//108 102//108
f 101//109 99//109 96//109 95//109
f 103//96 104//96 105//96 106//96
f 104//110 107//110 108//110 105//110
f 107//98 109//98 110//98 108//98
f 109//111 103//111 106//111 110//111
f 106//112 105//112 108//112 110//112
f 109//113 107//113 104//113 103//113
f 111//114 73//114 75//114 112//114 113//114 114//114 115//114
f 75//115 74//115 78//115 116//115 117//115 118//115 119//115 120//115 121//115 112//115
f 116//116 77//116 122//116 117//116
f 76//117 69//117 72//117 111//117 115//117 123//117 124//117 125//117 126//117 127//117
f 115//118 113//118 112//118 121//118 123//118
f 72//119 71//119 73//119 111//119
f 117//120 122//120 128//120 118//120
f 125//121 119//121 118//121 128//121 126//121
f 70//122 77//122 116//122 78//122
f 122//123 77//123 76//123 127//123
f 128//124 122//124 127//124 126//124
f 115//125 114//125 113//125
f 124//126 120//126 119//126 125//126
f 123//127 121//127 120//127 124//127
