# Blender v2.79 (sub 0) OBJ File: ''
# www.blender.org
mtllib coelhinho.mtl
o Cube.016_Cube.032
v -3.735722 -0.243886 -0.441480
v -3.745020 -0.244423 -0.434665
v -3.742634 -0.272818 -0.436349
v -3.735364 -0.272290 -0.441677
v -3.741561 -0.244423 -0.429945
v -3.739236 -0.272818 -0.431714
v -3.732263 -0.243886 -0.436760
v -3.731966 -0.272290 -0.437042
v -3.739184 -0.238293 -0.432382
v -3.735759 -0.237859 -0.434892
v -3.720737 -0.244352 -0.452434
v -3.729903 -0.243693 -0.445716
v -3.730663 -0.272356 -0.445159
v -3.723325 -0.273015 -0.450537
v -3.726471 -0.243693 -0.441033
v -3.727231 -0.272356 -0.440476
v -3.717305 -0.244352 -0.447751
v -3.719893 -0.273015 -0.445854
v -3.724063 -0.237901 -0.443628
v -3.720063 -0.238408 -0.446559
v -3.711568 -0.313337 -0.442698
v -3.721311 -0.313337 -0.435557
v -3.720845 -0.338421 -0.438058
v -3.714092 -0.338421 -0.443007
v -3.728021 -0.313337 -0.444714
v -3.725497 -0.338421 -0.444405
v -3.718278 -0.313337 -0.451855
v -3.718744 -0.338421 -0.449354
v -3.731234 -0.313337 -0.428285
v -3.740977 -0.313337 -0.421144
v -3.740523 -0.338421 -0.423587
v -3.733700 -0.338421 -0.428587
v -3.747688 -0.313337 -0.430301
v -3.745222 -0.338421 -0.429998
v -3.737945 -0.313337 -0.437441
v -3.738399 -0.338421 -0.434998
v -3.686451 -0.313337 -0.367181
v -3.696194 -0.313337 -0.360040
v -3.695798 -0.338421 -0.362167
v -3.688598 -0.338421 -0.367444
v -3.702905 -0.313337 -0.369196
v -3.700758 -0.338421 -0.368933
v -3.693162 -0.313337 -0.376337
v -3.693558 -0.338421 -0.374210
v -3.666198 -0.313337 -0.382024
v -3.675941 -0.313337 -0.374884
v -3.675561 -0.338421 -0.376924
v -3.668258 -0.338421 -0.382277
v -3.682651 -0.313337 -0.384040
v -3.680591 -0.338421 -0.383788
v -3.672908 -0.313337 -0.391181
v -3.673288 -0.338421 -0.389140
v -3.717711 -0.273650 -0.440116
v -3.734367 -0.273650 -0.427909
v -3.738357 -0.290692 -0.424985
v -3.713722 -0.290692 -0.443040
v -3.750941 -0.273528 -0.447639
v -3.748720 -0.283420 -0.461228
v -3.748720 -0.286560 -0.461228
v -3.752777 -0.290320 -0.446293
v -3.731528 -0.273528 -0.461866
v -3.726292 -0.271934 -0.457613
v -3.725449 -0.275463 -0.457328
v -3.727792 -0.276119 -0.459916
v -3.729699 -0.290320 -0.463207
v -3.745162 -0.286560 -0.463835
v -3.742535 -0.273726 -0.456406
v -3.732562 -0.269792 -0.442120
v -3.721344 -0.269794 -0.450374
v -3.745162 -0.283420 -0.463835
v -3.743857 -0.290550 -0.433112
v -3.722755 -0.290482 -0.454442
v -3.743023 -0.269790 -0.434424
v -3.747840 -0.272064 -0.442464
v -3.748201 -0.276630 -0.440651
v -3.748117 -0.279367 -0.439986
v -3.725144 -0.278306 -0.457387
v -3.725675 -0.278289 -0.457055
v -3.725971 -0.275529 -0.456997
v -3.727345 -0.279158 -0.459850
v -3.749776 -0.276316 -0.443514
v -3.749772 -0.279107 -0.442979
v -3.749352 -0.279060 -0.443240
v -3.749356 -0.276351 -0.443759
v -3.747827 -0.276655 -0.440980
v -3.727811 -0.279116 -0.459446
v -3.747746 -0.279312 -0.440334
v -3.728245 -0.276166 -0.459510
v -3.662622 -0.288211 -0.381448
v -3.695012 -0.288211 -0.357710
v -3.695012 -0.315810 -0.357710
v -3.662622 -0.315810 -0.381448
v -3.723845 -0.287112 -0.394347
v -3.749912 -0.288371 -0.433012
v -3.749912 -0.315650 -0.433012
v -3.723845 -0.316909 -0.394347
v -3.717897 -0.288371 -0.456476
v -3.717897 -0.315650 -0.456476
v -3.688876 -0.287112 -0.419975
v -3.688876 -0.316909 -0.419975
v -3.741981 -0.238293 -0.436198
v -3.738556 -0.237859 -0.438709
v -3.726704 -0.237901 -0.447231
v -3.722704 -0.238408 -0.450162
v -3.669175 -0.277638 -0.361497
v -3.681338 -0.277638 -0.352582
v -3.681338 -0.293106 -0.352582
v -3.669175 -0.293106 -0.361497
v -3.689716 -0.277638 -0.364013
v -3.689716 -0.293106 -0.364013
v -3.677553 -0.277638 -0.372927
v -3.677553 -0.293106 -0.372927
v -3.746344 -0.284063 -0.463922
v -3.748447 -0.284063 -0.462381
v -3.746344 -0.285918 -0.463922
v -3.748447 -0.285918 -0.462381
vn 0.5911 0.0018 0.8066
vn 0.8023 0.1023 -0.5881
vn -0.5912 0.0018 -0.8065
vn -0.8065 -0.0143 0.5911
vn -0.0472 0.9983 0.0346
vn -0.5841 -0.0915 -0.8065
vn 0.5911 0.0000 0.8066
vn 0.8061 -0.0329 -0.5908
vn -0.5911 0.0000 -0.8066
vn -0.8016 0.1113 0.5875
vn 0.0583 0.9974 -0.0427
vn -0.5938 -0.1130 -0.7966
vn 0.5897 -0.0693 0.8046
vn -0.8044 -0.0737 0.5895
vn -0.5897 -0.0693 -0.8046
vn 0.8044 -0.0737 -0.5895
vn 0.0000 -1.0000 0.0000
vn 0.0000 1.0000 0.0000
vn 0.5898 -0.0677 0.8047
vn -0.8045 -0.0720 0.5896
vn -0.5897 -0.0677 -0.8047
vn 0.8045 -0.0720 -0.5896
vn 0.5901 -0.0590 0.8052
vn -0.8049 -0.0627 0.5900
vn -0.5901 -0.0590 -0.8052
vn 0.8049 -0.0627 -0.5900
vn 0.5902 -0.0566 0.8053
vn -0.8051 -0.0602 0.5900
vn -0.5902 -0.0566 -0.8053
vn 0.8051 -0.0602 -0.5900
vn -0.9705 0.0739 -0.2295
vn 0.6256 0.1919 -0.7562
vn -0.2147 -0.9317 -0.2929
vn -0.1269 0.9734 -0.1908
vn -0.4595 0.6291 -0.6270
vn -0.0086 -0.9999 -0.0117
vn 0.0733 0.0736 -0.9946
vn -0.7262 -0.0020 0.6875
vn 0.2060 0.9375 0.2803
vn -0.1446 0.9734 -0.1775
vn 0.8977 -0.0363 -0.4391
vn -0.5310 -0.0393 -0.8464
vn 0.7086 0.0478 -0.7040
vn 0.8400 0.1830 -0.5108
vn -0.8478 0.2739 0.4540
vn 0.5070 0.1630 0.8464
vn -0.7360 0.2157 0.6417
vn -0.8635 0.0642 0.5003
vn -0.1102 -0.9927 -0.0481
vn -0.1133 0.9659 -0.2328
vn -0.6558 -0.1971 -0.7287
vn 0.6571 0.1128 0.7453
vn -0.0432 0.9930 0.1101
vn 0.1790 -0.9800 0.0865
vn -0.8292 0.0000 0.5590
vn 0.8264 0.0000 -0.5631
vn -0.0160 -0.9996 -0.0218
vn 0.0139 0.9997 0.0190
vn 0.0820 -0.9948 -0.0601
vn 0.7074 -0.4804 -0.5185
vn 0.5932 -0.0915 0.7998
vn -0.6760 -0.5456 0.4954
vn -0.0820 -0.9948 0.0601
vn 0.6916 -0.5146 -0.5069
vn 0.5808 -0.1130 0.8062
vn -0.7235 -0.4421 0.5302
vn -0.0160 0.9996 -0.0218
vn 0.0139 -0.9997 0.0190
vn 0.7827 0.0000 -0.6223
vn -0.7858 0.0000 0.6184
vn 0.7266 0.0921 -0.6809
vn -0.8681 0.0921 0.4877
vn 0.5912 0.0000 0.8066
vn -0.8066 0.0000 0.5911
vn 0.8065 0.0000 -0.5912
vn -0.3791 0.7672 -0.5174
vn 0.0734 0.0000 -0.9973
vn -0.3789 -0.7676 -0.5170
vn -0.9731 0.0000 -0.2304
usemtl Material.009
s off
f 1//1 2//1 3//1 4//1
f 2//2 5//2 6//2 3//2
f 5//3 7//3 8//3 6//3
f 7//4 1//4 4//4 8//4
f 4//5 3//5 6//5 8//5
f 7//6 5//6 9//6 10//6
f 11//7 12//7 13//7 14//7
f 12//8 15//8 16//8 13//8
f 15//9 17//9 18//9 16//9
f 17//10 11//10 14//10 18//10
f 14//11 13//11 16//11 18//11
f 17//12 15//12 19//12 20//12
f 21//13 22//13 23//13 24//13
f 22//14 25//14 26//14 23//14
f 25//15 27//15 28//15 26//15
f 27//16 21//16 24//16 28//16
f 24//17 23//17 26//17 28//17
f 27//18 25//18 22//18 21//18
f 29//19 30//19 31//19 32//19
f 30//20 33//20 34//20 31//20
f 33//21 35//21 36//21 34//21
f 35//22 29//22 32//22 36//22
f 32//17 31//17 34//17 36//17
f 35//18 33//18 30//18 29//18
f 37//23 38//23 39//23 40//23
f 38//24 41//24 42//24 39//24
f 41//25 43//25 44//25 42//25
f 43//26 37//26 40//26 44//26
f 40//17 39//17 42//17 44//17
f 43//18 41//18 38//18 37//18
f 45//27 46//27 47//27 48//27
f 46//28 49//28 50//28 47//28
f 49//29 51//29 52//29 50//29
f 51//30 45//30 48//30 52//30
f 48//17 47//17 50//17 52//17
f 51//18 49//18 46//18 45//18
f 53//7 54//7 55//7 56//7
f 57//31 58//31 59//31 60//31
f 61//32 62//32 63//32 64//32
f 65//33 60//33 59//33 66//33
f 61//34 67//34 68//34 69//34 62//34
f 70//35 58//35 57//35 67//35 61//35
f 56//36 55//36 71//36 60//36 65//36 72//36
f 70//37 61//37 65//37 66//37
f 54//38 73//38 74//38 75//38 76//38
f 69//39 68//39 73//39 54//39 53//39
f 68//40 67//40 57//40 74//40 73//40
f 62//41 69//41 53//41 77//41 63//41
f 63//42 77//42 78//42 79//42
f 64//43 80//43 77//43 72//43 65//43 61//43
f 72//44 77//44 53//44 56//44
f 74//45 57//45 81//45 75//45
f 81//46 82//46 83//46 84//46
f 76//47 71//47 55//47 54//47
f 71//48 76//48 82//48 81//48 57//48 60//48
f 75//49 81//49 84//49 85//49
f 77//50 80//50 86//50 78//50
f 76//51 75//51 85//51 87//51
f 80//52 64//52 88//52 86//52
f 82//53 76//53 87//53 83//53
f 64//54 63//54 79//54 88//54
f 89//7 90//7 91//7 92//7
f 93//55 94//55 95//55 96//55
f 94//9 97//9 98//9 95//9
f 99//56 89//56 92//56 100//56
f 100//57 96//57 95//57 98//57
f 99//58 93//58 90//58 89//58
f 10//59 9//59 101//59 102//59
f 5//60 2//60 101//60 9//60
f 2//61 1//61 102//61 101//61
f 1//62 7//62 10//62 102//62
f 20//63 19//63 103//63 104//63
f 15//64 12//64 103//64 19//64
f 12//65 11//65 104//65 103//65
f 11//66 17//66 20//66 104//66
f 97//67 94//67 93//67 99//67
f 92//68 91//68 96//68 100//68
f 97//69 99//69 100//69 98//69
f 90//70 93//70 96//70 91//70
usemtl oko.001
f 79//71 78//71 86//71 88//71
f 85//72 84//72 83//72 87//72
usemtl beak.003
f 105//73 106//73 107//73 108//73
f 106//74 109//74 110//74 107//74
f 109//9 111//9 112//9 110//9
f 111//75 105//75 108//75 112//75
f 108//17 107//17 110//17 112//17
f 111//18 109//18 106//18 105//18
usemtl red_.001
f 58//76 70//76 113//76 114//76
f 114//9 113//9 115//9 116//9
f 70//77 66//77 115//77 113//77
f 66//78 59//78 116//78 115//78
f 59//79 58//79 114//79 116//79
