# Blender v2.79 (sub 0) OBJ File: ''
# www.blender.org
mtllib galinha.mtl
o Cube.011_Cube.027
v -0.431878 -0.414821 -3.475337
v -0.432221 -0.414868 -3.483733
v -0.419744 -0.416106 -3.483458
v -0.419514 -0.416071 -3.476857
v -0.430683 -0.404578 -3.483829
v -0.419120 -0.413301 -3.483497
v -0.430340 -0.404530 -3.475433
v -0.418890 -0.413265 -3.476896
v -0.377222 -0.406846 -3.476197
v -0.378064 -0.406846 -3.489568
v -0.375138 -0.406709 -3.489607
v -0.374313 -0.406709 -3.476526
v -0.377982 -0.400857 -3.489518
v -0.377957 -0.399039 -3.489502
v -0.377929 -0.397070 -3.489486
v -0.375003 -0.397274 -3.489527
v -0.377627 -0.397070 -3.484679
v -0.374708 -0.397274 -3.484839
v -0.377098 -0.397070 -3.476296
v -0.377124 -0.399089 -3.476276
v -0.377147 -0.400899 -3.476257
v -0.374190 -0.397274 -3.476623
v -0.374482 -0.397274 -3.481265
v -0.390393 -0.396138 -3.474801
v -0.390724 -0.396138 -3.480052
v -0.390969 -0.396138 -3.483946
v -0.391306 -0.396138 -3.489300
v -0.391442 -0.407473 -3.489392
v -0.390516 -0.407473 -3.474693
v -0.410646 -0.415753 -3.450228
v -0.411376 -0.411684 -3.469871
v -0.411339 -0.416635 -3.470236
v -0.410634 -0.419041 -3.450591
v -0.391848 -0.411305 -3.471055
v -0.391812 -0.416255 -3.471419
v -0.399439 -0.415502 -3.450887
v -0.399427 -0.418789 -3.451250
v -0.412596 -0.411745 -3.489242
v -0.414338 -0.415712 -3.508837
v -0.414283 -0.419001 -3.508491
v -0.412515 -0.416698 -3.488899
v -0.403137 -0.415459 -3.509588
v -0.403081 -0.418749 -3.509242
v -0.393074 -0.411365 -3.490518
v -0.392993 -0.416318 -3.490174
v -0.396888 -0.412190 -3.476183
v -0.397577 -0.412190 -3.487114
v -0.390835 -0.417143 -3.487538
v -0.390147 -0.417143 -3.476608
v -0.387320 -0.398176 -3.487760
v -0.380579 -0.403129 -3.488185
v -0.386631 -0.398176 -3.476830
v -0.379890 -0.403129 -3.477254
v -0.420865 -0.410071 -3.466676
v -0.422557 -0.410071 -3.493536
v -0.422557 -0.428205 -3.493536
v -0.420865 -0.428205 -3.466676
v -0.391061 -0.410071 -3.495521
v -0.391061 -0.428205 -3.495521
v -0.389368 -0.410071 -3.468660
v -0.389368 -0.428205 -3.468660
v -0.379383 -0.396910 -3.476039
v -0.379408 -0.398893 -3.476019
v -0.380229 -0.396910 -3.489454
v -0.379920 -0.396910 -3.484553
v -0.380364 -0.406953 -3.489538
v -0.380280 -0.400753 -3.489486
v -0.379507 -0.406953 -3.475939
v -0.380257 -0.399017 -3.489472
v -0.379431 -0.400774 -3.476001
v -0.377191 -0.400871 -3.476443
v -0.379410 -0.400749 -3.476194
v -0.380213 -0.399042 -3.489283
v -0.380236 -0.400729 -3.489297
v -0.377169 -0.399112 -3.476461
v -0.377978 -0.399063 -3.489313
v -0.378002 -0.400830 -3.489328
v -0.379388 -0.398922 -3.476212
v -0.379688 -0.396910 -3.480876
v -0.377398 -0.397070 -3.481047
v -0.380992 -0.392975 -3.484088
v -0.389884 -0.392203 -3.483598
v -0.389691 -0.392203 -3.480542
v -0.380810 -0.392975 -3.481202
v -0.379147 -0.393135 -3.484190
v -0.376798 -0.393339 -3.484319
v -0.378967 -0.393135 -3.481339
v -0.376621 -0.393339 -3.481514
v -0.415107 -0.432628 -3.483354
v -0.415486 -0.432628 -3.489369
v -0.411777 -0.435354 -3.489603
v -0.411398 -0.435354 -3.483588
v -0.409842 -0.424916 -3.489725
v -0.406133 -0.427642 -3.489958
v -0.409463 -0.424916 -3.483710
v -0.405754 -0.427642 -3.483944
v -0.414448 -0.432628 -3.472892
v -0.414827 -0.432628 -3.478907
v -0.411118 -0.435354 -3.479141
v -0.410739 -0.435354 -3.473126
v -0.409183 -0.424916 -3.479263
v -0.405473 -0.427642 -3.479496
v -0.408804 -0.424916 -3.473248
v -0.405094 -0.427642 -3.473481
v -0.374884 -0.405272 -3.480103
v -0.375255 -0.405272 -3.485987
v -0.369136 -0.404491 -3.483783
v -0.369090 -0.404491 -3.483058
v -0.375212 -0.401484 -3.485990
v -0.369092 -0.403411 -3.483786
v -0.374841 -0.401484 -3.480106
v -0.369047 -0.403411 -3.483060
vn -0.0992 -0.9950 0.0092
vn 0.0196 -0.0135 -0.9997
vn 0.6033 0.7970 -0.0275
vn 0.1203 -0.0096 0.9927
vn 0.9755 -0.2174 -0.0328
vn -0.9882 0.1481 0.0395
vn 0.0467 -0.9989 -0.0029
vn -0.0136 0.0086 -0.9999
vn 0.0695 0.9976 -0.0044
vn 0.1122 0.0087 0.9936
vn 0.9979 -0.0137 -0.0629
vn -0.9980 0.0114 0.0629
vn -0.9993 -0.0090 0.0350
vn -0.0618 0.0728 -0.9954
vn 0.9368 -0.0253 0.3489
vn 0.0608 -0.1094 0.9921
vn 0.0132 -0.9926 -0.1209
vn -0.0080 0.9794 0.2020
vn -0.9958 -0.0089 0.0906
vn -0.0641 -0.1054 -0.9924
vn 0.8856 -0.0241 -0.4638
vn 0.0637 0.0701 0.9955
vn 0.0279 -0.9932 0.1131
vn -0.0330 0.9804 -0.1943
vn -0.5902 -0.8064 0.0372
vn -0.0628 -0.0000 -0.9980
vn 0.5902 0.8064 -0.0372
vn 0.0629 0.0000 0.9980
vn 0.8048 -0.5914 -0.0507
vn -0.8048 0.5914 0.0507
vn -0.9980 0.0000 0.0629
vn -0.0629 0.0000 -0.9980
vn 0.9980 0.0000 -0.0629
vn 0.0000 -1.0000 -0.0000
vn 0.0000 1.0000 -0.0000
vn 0.1123 0.0085 0.9936
vn 0.0693 0.9976 -0.0044
vn 0.0464 -0.9989 -0.0029
vn 0.0468 -0.9989 -0.0030
vn -0.0134 0.0084 -0.9999
vn 0.1122 0.0084 0.9937
vn 0.0688 0.9889 0.1320
vn 0.0688 0.9889 0.1319
vn 0.1117 0.0086 0.9937
vn 0.9733 -0.0112 -0.2294
vn -0.0132 0.0085 -0.9999
vn -0.9726 0.0146 0.2320
vn -0.0111 -0.9913 -0.1312
vn 0.0428 0.9901 -0.1339
vn -0.9940 0.0146 -0.1085
vn 0.9944 -0.0112 0.1054
vn -0.0690 -0.9876 0.1410
vn 0.0697 0.9976 -0.0044
vn 0.0862 0.9963 -0.0054
vn -0.0467 0.1028 -0.9936
vn -0.9636 0.2604 0.0607
vn -0.0465 0.1061 -0.9933
vn 0.0861 0.9963 -0.0054
vn 0.0821 0.1059 0.9910
vn -0.0466 0.1051 -0.9934
vn 0.8787 0.4741 -0.0555
vn 0.0821 0.1067 0.9909
vn 0.0819 0.1037 0.9912
vn -0.5903 -0.8063 0.0372
vn 0.5903 0.8063 -0.0372
vn 0.0631 0.0000 0.9980
vn -0.8048 0.5913 0.0507
vn 0.0628 0.0000 0.9980
vn 0.1295 -0.9915 -0.0082
vn 0.3382 -0.0072 -0.9410
vn 0.3071 0.9515 -0.0193
vn 0.4537 -0.0071 0.8911
vn 0.9972 -0.0403 -0.0625
vn 0.1121 0.0086 0.9937
usemtl body_
s off
f 1//1 2//1 3//1 4//1
f 2//2 5//2 6//2 3//2
f 5//3 7//3 8//3 6//3
f 7//4 1//4 4//4 8//4
f 4//5 3//5 6//5 8//5
f 7//6 5//6 2//6 1//6
f 9//7 10//7 11//7 12//7
f 10//8 13//8 14//8 15//8 16//8 11//8
f 15//9 17//9 18//9 16//9
f 19//10 20//10 21//10 9//10 12//10 22//10
f 12//11 11//11 16//11 18//11 23//11 22//11
f 24//12 25//12 26//12 27//12 28//12 29//12
f 30//13 31//13 32//13 33//13
f 31//14 34//14 35//14 32//14
f 34//15 36//15 37//15 35//15
f 36//16 30//16 33//16 37//16
f 33//17 32//17 35//17 37//17
f 36//18 34//18 31//18 30//18
f 38//19 39//19 40//19 41//19
f 39//20 42//20 43//20 40//20
f 42//21 44//21 45//21 43//21
f 44//22 38//22 41//22 45//22
f 41//23 40//23 43//23 45//23
f 44//24 42//24 39//24 38//24
f 46//25 47//25 48//25 49//25
f 47//26 50//26 51//26 48//26
f 50//27 52//27 53//27 51//27
f 52//28 46//28 49//28 53//28
f 49//29 48//29 51//29 53//29
f 52//30 50//30 47//30 46//30
f 54//31 55//31 56//31 57//31
f 55//32 58//32 59//32 56//32
f 58//33 60//33 61//33 59//33
f 60//28 54//28 57//28 61//28
f 57//34 56//34 59//34 61//34
f 60//35 58//35 55//35 54//35
f 62//36 63//36 20//36 19//36
f 64//37 65//37 17//37 15//37
f 66//8 67//8 13//8 10//8
f 68//38 66//38 10//38 9//38
f 29//39 28//39 66//39 68//39
f 28//40 27//40 64//40 69//40 67//40 66//40
f 27//9 26//9 65//9 64//9
f 24//41 29//41 68//41 70//41 63//41 62//41
f 70//42 21//43 71//42 72//43
f 21//44 70//44 68//44 9//44
f 67//45 69//45 73//45 74//45
f 14//46 69//46 64//46 15//46
f 21//47 20//47 75//47 71//47
f 69//48 14//48 76//48 73//48
f 13//49 67//49 74//49 77//49
f 14//50 13//50 77//50 76//50
f 63//51 70//51 72//51 78//51
f 20//52 63//52 78//52 75//52
f 79//9 25//9 24//9 62//9
f 80//53 79//53 62//53 19//53
f 23//9 80//9 19//9 22//9
usemtl red_
f 81//54 82//54 83//54 84//54
f 65//55 26//55 82//55 81//55
f 26//56 25//56 83//56 82//56
f 18//57 17//57 85//57 86//57
f 85//58 81//58 84//58 87//58
f 86//54 85//54 87//54 88//54
f 79//59 80//59 87//59 84//59
f 17//60 65//60 81//60 85//60
f 23//61 18//61 86//61 88//61
f 80//62 23//62 88//62 87//62
f 25//63 79//63 84//63 83//63
usemtl yellow.001
f 89//64 90//64 91//64 92//64
f 90//26 93//26 94//26 91//26
f 93//65 95//65 96//65 94//65
f 95//66 89//66 92//66 96//66
f 92//29 91//29 94//29 96//29
f 95//67 93//67 90//67 89//67
f 97//64 98//64 99//64 100//64
f 98//32 101//32 102//32 99//32
f 101//27 103//27 104//27 102//27
f 103//68 97//68 100//68 104//68
f 100//29 99//29 102//29 104//29
f 103//30 101//30 98//30 97//30
usemtl orange
f 105//69 106//69 107//69 108//69
f 106//70 109//70 110//70 107//70
f 109//71 111//71 112//71 110//71
f 111//72 105//72 108//72 112//72
f 108//73 107//73 110//73 112//73
f 111//12 109//12 106//12 105//12
usemtl oko
f 75//74 78//74 72//74 71//74
f 77//46 74//46 73//46 76//46
