# Blender v2.79 (sub 0) OBJ File: ''
# www.blender.org
mtllib passarinho.mtl
o Cube.000_Cube.018
v -1.445371 1.906014 -0.449019
v -1.451047 1.904689 -0.493560
v -1.405319 1.907975 -0.485742
v -1.405280 1.908873 -0.461749
v -1.448824 1.913217 -0.493864
v -1.404941 1.916908 -0.485604
v -1.443276 1.914581 -0.449439
v -1.405693 1.917141 -0.460713
v -1.296367 1.948690 -0.451808
v -1.294882 1.948919 -0.483458
v -1.287072 1.950497 -0.482736
v -1.288524 1.950273 -0.451773
v -1.296762 1.963052 -0.483312
v -1.297333 1.967342 -0.483267
v -1.297951 1.971989 -0.483219
v -1.289686 1.970496 -0.482503
v -1.299416 1.971763 -0.451999
v -1.291118 1.970275 -0.451961
v -1.298786 1.966997 -0.451960
v -1.298222 1.962726 -0.451925
v -1.332544 1.962591 -0.451308
v -1.330934 1.962840 -0.485626
v -1.330587 1.941703 -0.487473
v -1.332220 1.941452 -0.452683
v -1.391212 1.912085 -0.387409
v -1.390072 1.922187 -0.442324
v -1.388117 1.910413 -0.443330
v -1.389843 1.904276 -0.388415
v -1.337516 1.931509 -0.439659
v -1.335560 1.919735 -0.440666
v -1.338610 1.921102 -0.384745
v -1.337242 1.913294 -0.385750
v -1.387452 1.922444 -0.496679
v -1.382295 1.913604 -0.551696
v -1.381040 1.905774 -0.550721
v -1.385598 1.910648 -0.495706
v -1.329720 1.922621 -0.548452
v -1.328463 1.914791 -0.547477
v -1.334930 1.931760 -0.494093
v -1.333070 1.919966 -0.493133
v -1.347239 1.927683 -0.457243
v -1.346025 1.927870 -0.483114
v -1.326104 1.919114 -0.482243
v -1.327318 1.918927 -0.456371
v -1.323227 1.965286 -0.481773
v -1.303307 1.956530 -0.480902
v -1.324441 1.965099 -0.455902
v -1.304520 1.956343 -0.455031
v -1.414928 1.921981 -0.441564
v -1.411945 1.922441 -0.505142
v -1.405624 1.879748 -0.505154
v -1.408607 1.879287 -0.441576
v -1.326938 1.936021 -0.501055
v -1.320503 1.897443 -0.501062
v -1.329921 1.935561 -0.437477
v -1.323486 1.896983 -0.437484
v -1.305670 1.971150 -0.452030
v -1.305050 1.966469 -0.451992
v -1.304181 1.971380 -0.483783
v -1.301018 1.947679 -0.484025
v -1.302970 1.962311 -0.483876
v -1.302528 1.947446 -0.451836
v -1.303517 1.966407 -0.483834
v -1.304462 1.962030 -0.451955
v -1.298297 1.962781 -0.452373
v -1.304360 1.962105 -0.452404
v -1.303443 1.966357 -0.483378
v -1.302911 1.962377 -0.483419
v -1.298845 1.966931 -0.452408
v -1.297434 1.967267 -0.482828
v -1.296879 1.963098 -0.482871
v -1.304932 1.966418 -0.452439
v -1.289618 1.953557 -0.458961
v -1.288836 1.953678 -0.475635
v -1.273108 1.958604 -0.474862
v -1.273890 1.958483 -0.458187
v -1.290040 1.962616 -0.475627
v -1.273566 1.962506 -0.474855
v -1.290822 1.962496 -0.458952
v -1.274348 1.962385 -0.458180
v -1.386788 1.872104 -0.478782
v -1.384729 1.872429 -0.492857
v -1.372882 1.867753 -0.490738
v -1.375890 1.867276 -0.476696
v -1.373658 1.892783 -0.492559
v -1.362765 1.887954 -0.492151
v -1.374413 1.892666 -0.478427
v -1.363453 1.887847 -0.477895
v -1.388120 1.871897 -0.454402
v -1.387452 1.872000 -0.468638
v -1.376490 1.867182 -0.468159
v -1.377158 1.867079 -0.453922
v -1.374907 1.892590 -0.467901
v -1.363945 1.887772 -0.467421
v -1.375575 1.892487 -0.453664
v -1.364613 1.887669 -0.453185
vn 0.0729 -0.9970 0.0263
vn 0.1792 -0.0360 -0.9832
vn -0.0771 0.9969 -0.0176
vn 0.2988 -0.0647 0.9521
vn 0.9999 0.0010 0.0146
vn -0.9621 0.2478 0.1139
vn 0.1978 -0.9802 0.0022
vn 0.0890 0.0227 -0.9958
vn 0.1764 0.9842 0.0154
vn -0.0046 0.0082 1.0000
vn 0.9905 0.1289 0.0474
vn -0.9988 -0.0123 -0.0470
vn -0.9855 -0.1622 -0.0497
vn 0.0344 0.0908 -0.9953
vn 0.9855 0.1622 0.0498
vn -0.0275 -0.1324 0.9908
vn 0.1761 -0.9786 -0.1066
vn -0.1778 0.9680 0.1771
vn -0.9844 -0.1626 -0.0667
vn 0.0801 -0.1105 -0.9906
vn 0.9843 0.1630 0.0674
vn -0.0616 0.0719 0.9955
vn 0.1653 -0.9807 0.1040
vn -0.1598 0.9715 -0.1748
vn -0.4013 -0.9156 -0.0254
vn 0.0469 0.0072 -0.9989
vn 0.4013 0.9156 0.0254
vn -0.0469 -0.0072 0.9989
vn 0.8528 -0.5209 0.0362
vn -0.8528 0.5209 -0.0363
vn -0.9881 -0.1463 -0.0474
vn 0.0466 0.0076 -0.9989
vn 0.9853 0.1643 0.0474
vn -0.0466 -0.0076 0.9989
vn 0.2034 -0.9791 0.0025
vn -0.1577 0.9875 -0.0003
vn -0.0057 0.0074 1.0000
vn -0.0975 0.9952 0.0026
vn 0.0877 0.0219 -0.9959
vn 0.1979 -0.9802 0.0022
vn 0.0799 0.0526 -0.9954
vn -0.3036 0.9528 -0.0073
vn 0.0045 -0.0260 0.9997
vn -0.1104 0.9841 0.1392
vn -0.0058 0.0075 1.0000
vn 0.9804 0.1323 -0.1461
vn 0.0880 0.0220 -0.9959
vn -0.9804 -0.1283 0.1493
vn 0.1601 -0.9783 -0.1314
vn -0.1060 0.9858 -0.1302
vn -0.9620 -0.1255 -0.2425
vn 0.9622 0.1295 0.2397
vn 0.0825 -0.9875 0.1344
vn 0.0878 0.0220 -0.9959
vn 0.2986 -0.9544 0.0071
vn 0.0468 0.0072 -0.9989
vn 0.0064 1.0000 0.0075
vn -0.0469 -0.0073 0.9989
vn 0.9921 0.1164 0.0474
vn -0.9899 -0.1333 -0.0474
vn -0.3692 -0.9247 -0.0929
vn 0.0813 -0.0698 -0.9942
vn 0.4027 0.9149 0.0277
vn -0.0869 0.0728 0.9936
vn 0.8731 -0.4763 0.1042
vn -0.8644 0.4966 -0.0785
vn -0.4013 -0.9156 -0.0255
vn 0.4013 0.9156 0.0255
vn 0.8528 -0.5209 0.0363
usemtl body
s off
f 1//1 2//1 3//1 4//1
f 2//2 5//2 6//2 3//2
f 5//3 7//3 8//3 6//3
f 7//4 1//4 4//4 8//4
f 4//5 3//5 6//5 8//5
f 7//6 5//6 2//6 1//6
f 9//7 10//7 11//7 12//7
f 10//8 13//8 14//8 15//8 16//8 11//8
f 15//9 17//9 18//9 16//9
f 17//10 19//10 20//10 9//10 12//10 18//10
f 12//11 11//11 16//11 18//11
f 21//12 22//12 23//12 24//12
f 25//13 26//13 27//13 28//13
f 26//14 29//14 30//14 27//14
f 29//15 31//15 32//15 30//15
f 31//16 25//16 28//16 32//16
f 28//17 27//17 30//17 32//17
f 31//18 29//18 26//18 25//18
f 33//19 34//19 35//19 36//19
f 34//20 37//20 38//20 35//20
f 37//21 39//21 40//21 38//21
f 39//22 33//22 36//22 40//22
f 36//23 35//23 38//23 40//23
f 39//24 37//24 34//24 33//24
f 41//25 42//25 43//25 44//25
f 42//26 45//26 46//26 43//26
f 45//27 47//27 48//27 46//27
f 47//28 41//28 44//28 48//28
f 44//29 43//29 46//29 48//29
f 47//30 45//30 42//30 41//30
f 49//31 50//31 51//31 52//31
f 50//32 53//32 54//32 51//32
f 53//33 55//33 56//33 54//33
f 55//34 49//34 52//34 56//34
f 52//35 51//35 54//35 56//35
f 55//36 53//36 50//36 49//36
f 57//37 58//37 19//37 17//37
f 59//38 57//38 17//38 15//38
f 60//39 61//39 13//39 10//39
f 62//40 60//40 10//40 9//40
f 24//7 23//7 60//7 62//7
f 23//41 22//41 59//41 63//41 61//41 60//41
f 22//42 21//42 57//42 59//42
f 21//43 24//43 62//43 64//43 58//43 57//43
f 64//44 20//44 65//44 66//44
f 20//45 64//45 62//45 9//45
f 61//46 63//46 67//46 68//46
f 14//47 63//47 59//47 15//47
f 20//48 19//48 69//48 65//48
f 63//49 14//49 70//49 67//49
f 13//50 61//50 68//50 71//50
f 14//51 13//51 71//51 70//51
f 58//52 64//52 66//52 72//52
f 19//53 58//53 72//53 69//53
usemtl eyes
f 69//45 72//45 66//45 65//45
f 71//54 68//54 67//54 70//54
usemtl beak
f 73//55 74//55 75//55 76//55
f 74//56 77//56 78//56 75//56
f 77//57 79//57 80//57 78//57
f 79//58 73//58 76//58 80//58
f 76//59 75//59 78//59 80//59
f 79//60 77//60 74//60 73//60
usemtl LEG
f 81//61 82//61 83//61 84//61
f 82//62 85//62 86//62 83//62
f 85//63 87//63 88//63 86//63
f 87//64 81//64 84//64 88//64
f 84//65 83//65 86//65 88//65
f 87//66 85//66 82//66 81//66
f 89//67 90//67 91//67 92//67
f 90//26 93//26 94//26 91//26
f 93//68 95//68 96//68 94//68
f 95//28 89//28 92//28 96//28
f 92//69 91//69 94//69 96//69
f 95//30 93//30 90//30 89//30
